PathFileType	4	(X/Y/Z)	Kaydara	
DataRate	CameraRate	NumFrames	NumMarkers	Units	OrigDataRate	OrigDataStartFrame	OrigNumFrames	
60.00	60.00	4	74	mm	60.00	1004	121	
Frame#	Time	Z_lasi			Z_rasi			Z_rpsi			Z_lpsi			Z_fneck			Z_bneck			Z_fhead			Z_rhead			Z_lhead			Z_rshld			Z_relbtop			Z_relbext			Z_relblow			Z_rwrext			Z_rwrtop			Z_rwrlow			Z_lshld			Z_lelbext			Z_lelblow			Z_lelbtop			Z_lwrext			Z_lwrtop			Z_lwrlow			Z_rtopleg			Z_ltopleg			Z_rkneefr			Z_rkneebk			Z_rkneeis			Z_lkneefr			Z_lknssbk			Z_lkneeis			Z_rankfr			Z_rankis			Z_rankbk			Z_lankfr			Z_lankbk			Z_lankis			A_lasi			A_rasi			A_rpsi			A_lpsi			A_fneck			A_bneck			A_fhead			A_rhead			A_lhead			A_rshld			A_relbtop			A_relbext			A_relblow			A_rwrext			A_rwrtop			A_rwrlow			A_lshld			A_lelbext			A_lelblow			A_lelbtop			A_lwrext			A_lwrtop			A_lwrlow			A_rtopleg			A_ltopleg			A_rkneefr			A_rkneebk			A_rkneeis			A_lkneefr			A_lknssbk			A_lkneeis			A_rankfr			A_rankis			A_rankbk			A_lankfr			A_lankbk			A_lankis			
		X1	Y1	Z1	X2	Y2	Z2	X3	Y3	Z3	X4	Y4	Z4	X5	Y5	Z5	X6	Y6	Z6	X7	Y7	Z7	X8	Y8	Z8	X9	Y9	Z9	X10	Y10	Z10	X11	Y11	Z11	X12	Y12	Z12	X13	Y13	Z13	X14	Y14	Z14	X15	Y15	Z15	X16	Y16	Z16	X17	Y17	Z17	X18	Y18	Z18	X19	Y19	Z19	X20	Y20	Z20	X21	Y21	Z21	X22	Y22	Z22	X23	Y23	Z23	X24	Y24	Z24	X25	Y25	Z25	X26	Y26	Z26	X27	Y27	Z27	X28	Y28	Z28	X29	Y29	Z29	X30	Y30	Z30	X31	Y31	Z31	X32	Y32	Z32	X33	Y33	Z33	X34	Y34	Z34	X35	Y35	Z35	X36	Y36	Z36	X37	Y37	Z37	X38	Y38	Z38	X39	Y39	Z39	X40	Y40	Z40	X41	Y41	Z41	X42	Y42	Z42	X43	Y43	Z43	X44	Y44	Z44	X45	Y45	Z45	X46	Y46	Z46	X47	Y47	Z47	X48	Y48	Z48	X49	Y49	Z49	X50	Y50	Z50	X51	Y51	Z51	X52	Y52	Z52	X53	Y53	Z53	X54	Y54	Z54	X55	Y55	Z55	X56	Y56	Z56	X57	Y57	Z57	X58	Y58	Z58	X59	Y59	Z59	X60	Y60	Z60	X61	Y61	Z61	X62	Y62	Z62	X63	Y63	Z63	X64	Y64	Z64	X65	Y65	Z65	X66	Y66	Z66	X67	Y67	Z67	X68	Y68	Z68	X69	Y69	Z69	X70	Y70	Z70	X71	Y71	Z71	X72	Y72	Z72	X73	Y73	Z73	X74	Y74	Z74	

76	16.717	-201.61972	1074.30016	707.28355	-284.46247	1085.00793	514.99352	-123.59373	1117.29324	411.25286	-19.12043	1102.80983	634.85756	-229.27765	1425.82550	621.89026	-143.84844	1518.22235	620.60680	-388.42823	1543.09158	614.46960	-259.63482	1645.88120	579.02607	-266.20167	1599.61517	719.99100	-209.43073	1458.51410	415.42572	-301.08562	1164.81606	315.05259	-283.84012	1141.22604	371.82419	-337.46529	1223.07335	362.59190	-509.76761	1115.86472	473.75706	-524.68864	1156.72020	455.94517	-504.23500	1179.14474	486.78635	-92.66027	1427.29416	783.24951	-39.49737	1111.76193	771.25252	-87.06797	1129.63364	845.65414	-19.03101	1130.96634	838.52936	-147.52843	876.57738	840.99075	-129.01865	864.72221	883.28300	-85.34101	862.70149	866.82869	-173.61532	925.67581	371.98338	-106.88881	895.08583	731.36902	-242.21371	423.38970	410.88432	-172.53084	453.40050	361.08429	-175.71039	429.44103	482.78038	-168.95832	449.07242	689.70825	-63.53278	471.64452	666.95602	-167.30101	445.09895	596.86607	-203.99448	181.98009	379.22096	-180.11673	175.16506	441.27434	-127.94889	173.93309	370.83107	-117.35123	163.91344	679.44908	-64.83645	165.02621	615.77019	-145.21017	175.25585	612.28931	-974.14894	1032.50511	475.03494	-962.34131	1039.81934	633.87714	-1122.34879	1036.45287	655.42236	-1098.26660	1039.93553	472.77145	-1043.43201	1384.19769	564.64428	-1185.77759	1397.32849	559.51073	-1013.90732	1605.11673	604.86675	-1152.57484	1526.33621	672.32536	-1146.84814	1555.63049	511.16779	-1102.01500	1361.04462	736.61499	-933.93021	1141.19202	728.25363	-965.83450	1085.77621	717.04453	-941.04538	1142.60239	672.25189	-717.78305	1145.36293	634.14165	-725.04509	1183.53859	659.19930	-743.44238	1198.48183	626.92726	-1084.85512	1350.30685	386.35471	-1096.00014	1037.44774	373.49628	-1028.42918	1050.34958	396.09791	-1053.76450	1045.94711	348.20343	-993.24432	825.76996	387.86980	-993.22083	825.72525	347.60811	-950.75600	837.51167	360.91576	-1064.08813	876.31256	735.75569	-1028.91335	890.01877	399.12891	-1023.90152	452.09576	643.24539	-1131.63841	487.36889	688.09097	-1111.05064	487.07630	569.94823	-1008.65479	463.81561	510.76683	-1094.17763	480.75775	415.63271	-1116.23306	479.81899	539.71161	-1097.94861	166.47694	664.58572	-1130.96130	163.94545	598.57666	-1179.45847	155.34121	667.57782	-1066.63498	166.52210	457.44957	-1127.76077	168.90575	422.14043	-1126.05812	173.77626	511.66866 
77	16.733	-200.61728	1073.73199	707.47360	-283.68425	1084.49829	515.13760	-123.04349	1117.82646	411.41994	-18.68129	1103.22334	634.83856	-231.65552	1425.19165	620.69748	-145.63410	1517.90482	622.39479	-390.43243	1541.69662	617.15672	-261.99678	1644.89914	581.71539	-268.01752	1598.02490	722.38853	-211.53559	1458.71948	417.41302	-303.05576	1165.60043	316.16848	-285.64913	1141.69937	372.62699	-339.19319	1223.58215	363.97518	-511.48827	1115.79796	475.11257	-526.41838	1156.79855	457.19429	-505.92892	1178.99681	488.17310	-94.15370	1426.59027	784.82834	-38.91220	1111.45996	771.70982	-86.95709	1129.02473	845.75333	-18.77605	1130.47615	839.12827	-150.35472	877.24953	839.34280	-131.79971	864.90120	881.36581	-87.88543	862.25731	864.76013	-172.31932	926.08124	371.64356	-105.46863	895.08827	731.03775	-241.25862	423.79974	410.34649	-171.36150	453.56949	360.74059	-175.23350	429.64436	482.69192	-167.96572	449.18491	689.47983	-62.36107	471.48888	666.63216	-166.35632	445.14698	596.65298	-203.74071	182.18161	378.91842	-179.77356	175.33480	440.85258	-127.67406	173.92975	370.66334	-116.95855	163.88788	679.40155	-64.60420	164.82174	615.62195	-144.90620	175.37249	612.46544	-974.26369	1032.67914	474.83051	-962.37808	1040.08736	633.77911	-1122.25853	1035.93620	655.41161	-1098.40935	1039.43756	472.71267	-1045.27252	1383.28751	564.51996	-1187.25716	1398.15521	559.44801	-1012.28279	1602.65808	606.46309	-1152.58980	1525.97794	673.12439	-1145.96199	1556.52878	512.19955	-1103.58650	1360.25253	736.28731	-935.04143	1140.62065	728.01628	-966.81778	1085.39742	716.50688	-942.02858	1142.21344	672.09648	-718.78250	1144.89510	634.48410	-726.00403	1183.00011	659.82704	-744.17526	1198.15643	627.61299	-1086.96449	1349.89716	386.00765	-1096.59950	1036.95114	373.40508	-1029.22119	1050.25459	395.84343	-1054.54262	1045.62943	347.97344	-992.86850	825.81093	387.59026	-992.68318	825.80414	347.61246	-950.30144	837.80205	360.83523	-1063.17139	876.15280	735.78842	-1028.42407	889.93088	399.16954	-1023.29094	452.04861	643.28293	-1130.80002	487.34364	687.96104	-1110.49683	487.16171	569.94026	-1008.00758	463.80291	510.69016	-1093.68263	480.78003	415.78182	-1115.57762	479.83498	539.79420	-1097.84676	166.46307	664.65195	-1130.80635	164.00169	598.60138	-1179.27010	155.45541	667.57591	-1066.44226	166.46946	457.44675	-1127.61269	168.95281	422.16873	-1125.87120	173.78572	511.69048 
78	16.750	-199.91457	1073.09410	707.65800	-283.05010	1084.02534	515.25738	-122.55202	1118.30032	411.88847	-18.36076	1103.53577	635.05077	-233.85590	1424.77692	618.40427	-146.89906	1517.65915	624.05525	-391.69926	1541.87546	619.68842	-262.78942	1644.52698	583.80878	-268.72149	1597.33307	724.54216	-213.32666	1458.92441	419.13193	-305.05793	1166.34865	317.25285	-287.33059	1142.16507	373.55610	-340.99564	1224.07028	365.46017	-513.17726	1115.70267	476.17832	-528.10143	1156.77139	458.64082	-507.62661	1178.78082	489.49791	-95.65425	1426.13754	786.32614	-38.72718	1111.35574	772.19276	-87.55006	1128.38280	845.95436	-19.15099	1130.00084	839.91066	-153.09411	878.01201	837.94121	-134.50763	865.02373	879.88907	-90.46840	861.91795	862.70271	-170.91106	926.37398	371.45271	-104.41318	895.00610	730.89584	-240.21662	424.04915	409.97913	-170.16987	453.74790	360.43438	-174.91194	430.00317	482.69802	-166.96234	449.26586	689.34189	-61.28221	471.41434	666.33278	-165.35585	445.17223	596.39820	-203.40008	182.32809	378.58013	-179.43840	175.46303	440.52979	-127.36091	173.90301	370.51151	-116.60586	163.92103	679.36745	-64.45055	164.52105	615.63137	-144.61548	175.44973	612.52865	-974.39957	1032.84889	474.59637	-962.11594	1040.54749	633.21976	-1122.05582	1035.45586	655.34630	-1098.55530	1038.94485	472.59071	-1046.94626	1382.25601	564.35837	-1188.76205	1399.04510	559.50069	-1010.47157	1600.11322	607.83401	-1152.28432	1525.77026	673.87306	-1144.92081	1557.45728	513.18306	-1105.09216	1359.41574	736.02791	-936.81091	1140.01633	728.36655	-968.41171	1084.71329	716.33118	-943.24120	1141.68602	672.19948	-719.86542	1144.35287	635.17155	-727.11067	1182.38441	660.67017	-745.06645	1197.65709	628.46081	-1088.99879	1349.56299	385.72285	-1097.39418	1036.51604	373.30677	-1029.92516	1050.21561	395.64644	-1055.39391	1045.40718	347.85145	-992.39731	825.78529	387.60971	-992.28821	825.89806	347.53971	-949.98230	838.15437	360.62683	-1062.19894	876.01074	735.70801	-1028.10127	889.84474	399.14509	-1022.70714	452.02843	643.27057	-1130.15244	487.47581	687.98180	-1109.75319	487.21119	569.84478	-1007.54845	463.80669	510.72464	-1093.13591	480.81509	415.77835	-1115.07378	479.88235	539.87724	-1097.68997	166.44354	664.66232	-1130.62881	164.03601	598.59966	-1179.16405	155.64512	667.69562	-1066.28990	166.43263	457.47192	-1127.46948	169.00711	422.20150	-1125.65590	173.79776	511.73149 
79	16.767	-199.57790	1072.58385	707.91183	-282.64048	1083.58032	515.45910	-122.15360	1118.77296	412.11098	-18.17259	1103.89610	635.48683	-233.63314	1425.14999	628.21442	-147.37852	1517.46170	625.25848	-392.29141	1543.55072	621.92131	-262.44476	1644.68567	585.62569	-267.98206	1597.46506	726.38680	-214.47830	1459.18930	420.63683	-306.97866	1167.00172	318.68591	-289.23244	1142.68234	374.81972	-342.92030	1224.56825	366.95824	-514.88106	1115.50087	477.45796	-529.88426	1156.70799	460.08869	-509.46770	1178.72620	491.20857	-96.92892	1425.84259	787.71469	-39.19240	1111.22620	773.08533	-88.41410	1128.03322	846.34224	-20.09941	1129.53445	840.96718	-155.94968	878.63060	837.01233	-137.20050	865.10849	878.72131	-93.64532	861.38847	860.68008	-169.83486	926.78940	371.44051	-103.68740	894.96300	730.85701	-238.94817	424.36989	409.55307	-168.83144	453.89191	360.19173	-173.30044	430.01839	482.16022	-165.99447	449.32274	689.16222	-60.34139	471.26461	666.33102	-164.44401	445.18654	596.19854	-202.87014	182.50851	378.19897	-179.17542	175.61098	440.28282	-126.84415	173.87051	370.28145	-116.18737	163.92191	679.32770	-64.26593	164.26762	615.69935	-144.29626	175.50943	612.55341	-974.58046	1032.99339	474.39720	-961.98845	1040.87730	633.04359	-1121.86134	1034.93591	655.25864	-1098.75023	1038.47801	472.50816	-1048.70949	1381.28952	564.43176	-1190.04601	1399.96719	559.61384	-1008.63609	1597.53204	609.10328	-1152.01706	1525.83099	674.45198	-1143.89305	1558.12744	514.02954	-1107.02492	1358.66913	736.03241	-938.53058	1139.23912	728.56590	-970.24940	1084.01306	716.34804	-944.73045	1141.19164	672.37717	-721.02852	1143.55423	636.64326	-728.49281	1181.45180	661.87904	-746.21513	1196.93375	629.61445	-1091.00136	1349.29108	385.66246	-1098.19885	1036.16432	373.24482	-1030.81650	1050.21973	395.28484	-1056.44730	1045.30922	347.57614	-992.05093	825.75493	387.47002	-992.13936	826.05362	347.42672	-949.86488	838.57414	360.25360	-1061.50864	875.92026	735.69611	-1027.68837	889.70535	399.06643	-1022.08504	452.07066	643.16376	-1129.60350	487.56199	687.97539	-1109.00879	487.21191	569.77806	-1007.07474	463.77544	510.74657	-1092.61795	480.82832	415.74009	-1114.48586	479.91558	539.97589	-1097.55638	166.40396	664.72626	-1130.47409	164.05012	598.62465	-1179.03419	155.78954	667.74422	-1066.11877	166.38409	457.46647	-1127.35268	169.04713	422.22782	-1125.45937	173.84708	511.77288 
